<?xml version="1.0" encoding="UTF-8" standalone="no"?>
<!-- Generator: Adobe Illustrator 27.5.0, SVG Export Plug-In . SVG Version: 6.00 Build 0)  -->

<svg
   version="1.1"
   x="0px"
   y="0px"
   viewBox="0 0 1919.089 1013.054"
   xml:space="preserve"
   id="svg80"
   sodipodi:docname="bottom.svg"
   width="1919.089"
   height="1013.054"
   inkscape:version="1.3.2 (091e20e, 2023-11-25, custom)"
   xmlns:inkscape="http://www.inkscape.org/namespaces/inkscape"
   xmlns:sodipodi="http://sodipodi.sourceforge.net/DTD/sodipodi-0.dtd"
   xmlns:xlink="http://www.w3.org/1999/xlink"
   xmlns="http://www.w3.org/2000/svg"
   xmlns:svg="http://www.w3.org/2000/svg"><defs
   id="defs80" /><sodipodi:namedview
   id="namedview80"
   pagecolor="#ffffff"
   bordercolor="#000000"
   borderopacity="0.25"
   inkscape:showpageshadow="2"
   inkscape:pageopacity="0.0"
   inkscape:pagecheckerboard="0"
   inkscape:deskcolor="#d1d1d1"
   inkscape:zoom="0.4771552"
   inkscape:cx="841.44531"
   inkscape:cy="448.4914"
   inkscape:window-width="1920"
   inkscape:window-height="1010"
   inkscape:window-x="-6"
   inkscape:window-y="-6"
   inkscape:window-maximized="1"
   inkscape:current-layer="svg80" />



<g
   id="Object"
   transform="translate(0,62.872626)">
	<g
   id="g70"
   style="display:inline;fill:#3a02c1;fill-opacity:1"
   transform="matrix(2.5692056,0,0,2.5593776,-2.4570025,-263.99201)">
		<defs
   id="defs6"><rect
     id="SVGID_00000061433012086413965530000003241163461055489443_"
     width="750"
     height="500"
     x="0"
     y="0" /></defs>
		<clipPath
   id="SVGID_00000149365474198310391570000007872057993487680941_">
			<use
   xlink:href="#SVGID_00000061433012086413965530000003241163461055489443_"
   style="overflow:visible"
   id="use6" />
		</clipPath>
		
		
		
		
		
		
		
		
		
		
		
		
		
		
		
		
		
		
		<path
   style="display:inline;fill:#8748e6;fill-opacity:1"
   d="m 492.837,423.331 c -0.04,0.004 -0.084,0.013 -0.129,0.024 -0.926,0.231 -1.951,2.023 -2.445,2.746 -0.852,1.245 -1.569,2.58 -2.286,3.905 -1.617,2.991 -2.764,6.214 -3.741,9.462 -0.379,1.257 -0.669,2.547 -0.876,3.85 -0.114,-0.035 -0.265,0.028 -0.268,0.189 -0.014,0.67 0.006,1.335 0.004,2.005 -0.111,1.39 -0.118,2.786 -0.022,4.176 -0.189,-0.873 -0.369,-1.751 -0.544,-2.632 -0.584,-2.941 -1.055,-5.898 -1.406,-8.879 -0.335,-2.819 -0.557,-5.634 -0.573,-8.475 -0.014,-2.318 0.13,-4.633 0.097,-6.95 -0.009,-0.5 0.01,-1.949 -0.725,-1.544 -0.035,0.018 -0.072,0.042 -0.11,0.069 -0.772,0.561 -1.054,2.607 -1.243,3.461 -0.324,1.474 -0.492,2.978 -0.663,4.478 -0.383,3.377 -0.243,6.795 0.061,10.172 0.235,2.6 0.833,5.183 1.763,7.636 -0.845,-0.977 -1.758,-1.894 -2.738,-2.725 -2.218,-1.876 -4.544,-3.657 -7.102,-5.052 -1.133,-0.617 -2.271,-1.241 -3.463,-1.738 -0.693,-0.288 -2.264,-1.097 -3.039,-0.832 -0.038,0.014 -0.072,0.026 -0.102,0.042 -0.647,0.316 0.379,1.017 0.725,1.271 1.608,1.162 3.301,2.202 4.917,3.351 1.987,1.41 3.848,2.953 5.662,4.576 1.914,1.713 3.755,3.497 5.528,5.356 1.154,1.206 2.311,2.404 3.329,3.714 0.229,2.918 0.563,5.823 1,8.711 -1.742,-3.77 -4.372,-7.144 -7.531,-9.816 -2.624,-2.22 -5.378,-4.329 -8.402,-5.979 -1.342,-0.73 -2.69,-1.469 -4.101,-2.057 -0.818,-0.344 -2.68,-1.299 -3.596,-0.987 -0.045,0.018 -0.086,0.033 -0.122,0.051 -0.764,0.374 0.449,1.203 0.86,1.502 1.902,1.377 3.905,2.608 5.818,3.969 2.353,1.667 4.555,3.492 6.699,5.414 2.267,2.029 4.446,4.141 6.548,6.341 1.554,1.625 3.098,3.25 4.415,5.062 0.422,2.356 0.889,4.705 1.433,7.039 -1.735,-3.508 -4.228,-6.654 -7.204,-9.174 -2.624,-2.223 -5.378,-4.33 -8.402,-5.979 -1.343,-0.73 -2.69,-1.469 -4.103,-2.058 -0.817,-0.342 -2.678,-1.299 -3.594,-0.986 -0.044,0.016 -0.086,0.033 -0.122,0.052 -0.765,0.372 0.448,1.203 0.859,1.501 1.902,1.378 3.904,2.608 5.819,3.967 2.352,1.67 4.553,3.494 6.699,5.417 2.267,2.027 4.446,4.141 6.545,6.339 1.631,1.706 3.254,3.409 4.611,5.33 1.009,3.787 2.152,7.542 3.439,11.253 -1.722,-4.175 -4.516,-7.919 -7.952,-10.83 -2.624,-2.22 -5.378,-4.328 -8.404,-5.976 -1.341,-0.733 -2.688,-1.47 -4.1,-2.06 -0.819,-0.342 -2.679,-1.299 -3.594,-0.985 -0.047,0.017 -0.087,0.031 -0.124,0.051 -0.764,0.374 0.449,1.202 0.86,1.501 1.902,1.378 3.904,2.607 5.819,3.968 2.35,1.67 4.555,3.494 6.699,5.415 2.266,2.028 4.445,4.141 6.547,6.34 1.807,1.894 3.624,3.766 5.057,5.954 0.022,0.084 0.048,0.168 0.07,0.252 0.021,0.089 0.091,0.116 0.161,0.103 0.032,0.052 0.066,0.102 0.1,0.155 0.028,0.048 0.072,0.051 0.108,0.036 0.073,0.348 0.161,0.691 0.3,1.021 0.047,0.113 0.224,0.115 0.241,-0.011 0.945,2.491 1.958,4.957 3.004,7.407 0.023,0.072 0.046,0.143 0.068,0.218 -2.667,-4.556 -6.766,-8.261 -11.455,-10.66 -3.06,-1.564 -6.222,-2.993 -9.542,-3.909 -1.475,-0.406 -2.953,-0.821 -4.463,-1.073 -0.875,-0.147 -2.903,-0.653 -3.725,-0.142 -0.04,0.027 -0.077,0.053 -0.106,0.079 -0.66,0.536 0.709,1.069 1.177,1.265 2.165,0.91 4.398,1.652 6.571,2.54 2.669,1.092 5.229,2.367 7.756,3.75 2.667,1.459 5.272,3.02 7.816,4.683 2.191,1.432 4.387,2.844 6.28,4.646 0.04,0.077 0.084,0.15 0.123,0.228 0.046,0.164 0.077,0.331 0.144,0.489 0.041,0.1 0.212,0.099 0.203,-0.03 -0.002,-0.034 -0.005,-0.067 -0.004,-0.1 1.522,3.46 3.142,6.873 4.831,10.242 0.006,0.016 0.01,0.032 0.016,0.049 0.011,0.058 0.036,0.111 0.049,0.169 -0.016,-0.021 -0.025,-0.045 -0.041,-0.065 -2.649,-4.844 -6.924,-8.769 -11.828,-11.277 -3.06,-1.564 -6.219,-2.99 -9.542,-3.908 -1.474,-0.408 -2.952,-0.821 -4.461,-1.07 -0.873,-0.148 -2.903,-0.657 -3.725,-0.145 -0.04,0.027 -0.077,0.053 -0.108,0.077 -0.658,0.538 0.712,1.071 1.18,1.268 2.165,0.908 4.395,1.648 6.57,2.539 2.668,1.089 5.228,2.366 7.754,3.748 2.669,1.46 5.272,3.021 7.817,4.684 2.19,1.432 4.388,2.844 6.28,4.645 0.041,0.08 0.086,0.153 0.124,0.231 0.043,0.083 0.117,0.092 0.18,0.063 0.015,0.016 0.028,0.027 0.043,0.041 0.02,0.051 0.024,0.107 0.046,0.158 0.049,0.119 0.249,0.119 0.247,-0.029 1.255,2.468 2.537,4.92 3.86,7.333 0.079,0.143 0.286,-0.003 0.209,-0.143 -1.38,-2.49 -2.701,-4.991 -3.988,-7.5 0.016,-0.035 0.019,-0.08 -10e-4,-0.128 -0.038,-0.101 -0.069,-0.2 -0.107,-0.3 -0.116,-3.14 0.363,-6.244 0.82,-9.356 0.531,-3.619 1.201,-7.206 2.013,-10.773 0.769,-3.379 1.663,-6.702 2.807,-9.973 0.932,-2.667 2.043,-5.267 2.948,-7.942 0.196,-0.58 0.809,-2.235 -0.199,-2.069 -0.048,0.006 -0.102,0.02 -0.156,0.033 -1.117,0.331 -2.274,2.564 -2.841,3.47 -0.976,1.559 -1.783,3.219 -2.591,4.87 -1.822,3.722 -3.057,7.707 -4.087,11.711 -1.542,5.998 -1.507,12.481 0.342,18.407 -1.531,-3.062 -2.984,-6.147 -4.346,-9.271 0.012,-0.029 0.032,-0.059 0.017,-0.09 -0.043,-0.087 -0.106,-0.159 -0.152,-0.243 -0.087,-2.563 0.302,-5.092 0.675,-7.633 0.435,-2.967 0.983,-5.91 1.65,-8.836 0.631,-2.77 1.363,-5.495 2.303,-8.18 0.765,-2.186 1.675,-4.319 2.419,-6.515 0.16,-0.473 0.664,-1.833 -0.165,-1.696 -0.041,0.005 -0.082,0.016 -0.128,0.026 -0.917,0.272 -1.867,2.103 -2.33,2.846 -0.8,1.279 -1.464,2.641 -2.126,3.995 -1.495,3.055 -2.506,6.322 -3.351,9.605 -1.125,4.375 -1.225,9.065 -0.172,13.469 -0.92,-2.238 -1.809,-4.488 -2.624,-6.776 -0.103,-3.109 0.368,-6.183 0.821,-9.266 0.53,-3.618 1.2,-7.207 2.011,-10.773 0.77,-3.378 1.661,-6.7 2.808,-9.973 0.932,-2.665 2.041,-5.265 2.949,-7.94 0.195,-0.578 0.808,-2.235 -0.201,-2.07 -0.049,0.008 -0.099,0.02 -0.156,0.033 -1.116,0.331 -2.273,2.564 -2.841,3.47 -0.976,1.559 -1.783,3.22 -2.591,4.871 -1.821,3.724 -3.057,7.706 -4.087,11.709 -1.155,4.499 -1.417,9.273 -0.706,13.879 -0.408,-1.337 -0.814,-2.676 -1.184,-4.034 -0.328,-1.21 -0.623,-2.43 -0.921,-3.648 0.016,-0.017 0.024,-0.038 0.023,-0.069 -0.005,-0.061 -0.004,-0.119 -0.007,-0.18 0.061,-0.03 0.102,-0.092 0.07,-0.175 -0.031,-0.08 -0.058,-0.163 -0.088,-0.244 -0.095,-2.576 0.299,-5.123 0.674,-7.676 0.436,-2.967 0.983,-5.91 1.65,-8.837 0.63,-2.768 1.363,-5.494 2.302,-8.18 0.765,-2.187 1.675,-4.319 2.419,-6.515 0.161,-0.474 0.663,-1.834 -0.165,-1.696 -0.039,0.005 -0.082,0.017 -0.126,0.027 -0.916,0.271 -1.868,2.104 -2.331,2.846 -0.802,1.277 -1.464,2.64 -2.125,3.994 -1.495,3.055 -2.509,6.321 -3.353,9.605 -0.652,2.54 -0.957,5.186 -0.899,7.822 -0.066,-0.369 -0.139,-0.737 -0.203,-1.106 0.031,-0.037 0.048,-0.084 0.025,-0.148 -0.033,-0.098 -0.063,-0.2 -0.096,-0.302 0.015,-3.144 0.619,-6.224 1.205,-9.315 0.677,-3.595 1.491,-7.153 2.449,-10.682 0.906,-3.345 1.934,-6.629 3.21,-9.851 1.042,-2.626 2.258,-5.178 3.272,-7.813 0.22,-0.571 0.899,-2.201 -0.116,-2.078 -0.049,0.005 -0.102,0.017 -0.158,0.028 -1.129,0.285 -2.376,2.469 -2.979,3.351 -1.038,1.516 -1.912,3.144 -2.788,4.76 -1.972,3.646 -3.369,7.575 -4.561,11.535 -0.659,2.189 -1.094,4.458 -1.319,6.746 -0.017,-0.054 -0.032,-0.108 -0.052,-0.161 0.002,-0.248 0.026,-0.494 0.036,-0.741 0.039,-0.021 0.063,-0.06 0.038,-0.115 -0.01,-0.025 -0.02,-0.05 -0.029,-0.074 0.105,-2.258 0.522,-4.481 0.942,-6.712 0.556,-2.948 1.225,-5.867 2.01,-8.763 0.745,-2.743 1.588,-5.436 2.634,-8.08 0.854,-2.153 1.851,-4.246 2.684,-6.408 0.18,-0.469 0.738,-1.807 -0.095,-1.705 z"
   clip-path="url(#SVGID_00000149365474198310391570000007872057993487680941_)"
   id="path44"
   transform="translate(0)" /><path
   style="display:inline;fill:#8748e6;fill-opacity:1"
   d="m 543.285,390.666 c 0.04,0.004 0.084,0.013 0.129,0.024 0.926,0.232 1.951,2.023 2.445,2.746 0.852,1.245 1.569,2.58 2.286,3.905 1.617,2.991 2.764,6.214 3.741,9.462 0.379,1.257 0.669,2.547 0.876,3.851 0.114,-0.035 0.265,0.028 0.268,0.189 0.014,0.67 -0.006,1.335 -0.004,2.005 0.111,1.39 0.118,2.786 0.021,4.176 0.188,-0.873 0.369,-1.751 0.544,-2.632 0.584,-2.941 1.055,-5.898 1.406,-8.879 0.335,-2.819 0.557,-5.634 0.573,-8.475 0.014,-2.318 -0.13,-4.633 -0.097,-6.95 0.009,-0.5 -0.01,-1.949 0.725,-1.544 0.035,0.018 0.072,0.042 0.11,0.069 0.771,0.56 1.054,2.606 1.243,3.461 0.324,1.474 0.492,2.978 0.663,4.478 0.383,3.377 0.243,6.795 -0.061,10.172 -0.235,2.6 -0.833,5.183 -1.763,7.636 0.845,-0.977 1.758,-1.894 2.738,-2.725 2.218,-1.876 4.544,-3.657 7.102,-5.052 1.133,-0.617 2.271,-1.241 3.463,-1.738 0.693,-0.288 2.264,-1.097 3.039,-0.832 0.038,0.014 0.072,0.026 0.102,0.042 0.647,0.316 -0.379,1.017 -0.725,1.271 -1.608,1.162 -3.301,2.202 -4.917,3.351 -1.987,1.41 -3.848,2.953 -5.662,4.576 -1.914,1.713 -3.755,3.497 -5.528,5.356 -1.154,1.206 -2.31,2.404 -3.329,3.714 -0.229,2.918 -0.563,5.823 -1,8.711 1.742,-3.77 4.372,-7.144 7.531,-9.816 2.624,-2.22 5.378,-4.329 8.402,-5.978 1.342,-0.73 2.69,-1.469 4.101,-2.057 0.818,-0.344 2.68,-1.299 3.596,-0.987 0.045,0.018 0.086,0.033 0.122,0.051 0.764,0.374 -0.449,1.203 -0.86,1.502 -1.902,1.377 -3.905,2.608 -5.818,3.969 -2.353,1.667 -4.555,3.492 -6.699,5.414 -2.267,2.029 -4.446,4.141 -6.548,6.341 -1.554,1.625 -3.098,3.25 -4.415,5.061 -0.422,2.357 -0.889,4.705 -1.433,7.039 1.735,-3.508 4.229,-6.654 7.204,-9.174 2.624,-2.223 5.378,-4.33 8.402,-5.979 1.343,-0.73 2.689,-1.469 4.102,-2.058 0.817,-0.342 2.678,-1.299 3.594,-0.986 0.044,0.016 0.086,0.033 0.122,0.052 0.765,0.372 -0.448,1.203 -0.859,1.501 -1.902,1.378 -3.904,2.608 -5.819,3.967 -2.352,1.67 -4.553,3.494 -6.699,5.417 -2.267,2.027 -4.446,4.141 -6.545,6.339 -1.631,1.706 -3.254,3.409 -4.611,5.33 -1.009,3.787 -2.152,7.542 -3.438,11.253 1.722,-4.175 4.516,-7.919 7.952,-10.83 2.624,-2.22 5.378,-4.328 8.404,-5.976 1.341,-0.733 2.688,-1.47 4.1,-2.06 0.819,-0.342 2.679,-1.299 3.594,-0.985 0.047,0.017 0.087,0.031 0.124,0.051 0.764,0.374 -0.449,1.202 -0.86,1.501 -1.902,1.378 -3.904,2.607 -5.819,3.968 -2.35,1.67 -4.555,3.494 -6.699,5.415 -2.266,2.028 -4.445,4.141 -6.547,6.34 -1.807,1.893 -3.624,3.766 -5.057,5.954 -0.022,0.084 -0.048,0.168 -0.07,0.252 -0.022,0.089 -0.091,0.116 -0.161,0.103 -0.032,0.052 -0.066,0.102 -0.1,0.155 -0.028,0.048 -0.072,0.051 -0.108,0.036 -0.073,0.348 -0.161,0.691 -0.3,1.02 -0.047,0.113 -0.224,0.115 -0.241,-0.011 -0.945,2.491 -1.958,4.957 -3.004,7.407 -0.023,0.072 -0.046,0.144 -0.068,0.218 2.667,-4.556 6.766,-8.261 11.455,-10.66 3.061,-1.564 6.222,-2.993 9.542,-3.909 1.475,-0.406 2.953,-0.821 4.463,-1.073 0.875,-0.146 2.903,-0.653 3.725,-0.142 0.04,0.027 0.077,0.053 0.107,0.079 0.66,0.536 -0.709,1.069 -1.177,1.265 -2.165,0.91 -4.398,1.652 -6.571,2.54 -2.669,1.092 -5.229,2.367 -7.756,3.75 -2.667,1.459 -5.271,3.02 -7.816,4.683 -2.191,1.432 -4.387,2.844 -6.28,4.646 -0.04,0.077 -0.084,0.15 -0.123,0.228 -0.046,0.164 -0.077,0.331 -0.144,0.489 -0.041,0.1 -0.212,0.099 -0.203,-0.03 0.002,-0.034 0.005,-0.067 0.004,-0.1 -1.523,3.46 -3.142,6.873 -4.831,10.242 -0.006,0.016 -0.01,0.032 -0.016,0.049 -0.011,0.058 -0.036,0.111 -0.049,0.169 0.016,-0.022 0.025,-0.045 0.041,-0.065 2.649,-4.844 6.924,-8.769 11.828,-11.277 3.06,-1.564 6.219,-2.99 9.542,-3.908 1.474,-0.408 2.952,-0.821 4.461,-1.07 0.873,-0.148 2.903,-0.657 3.725,-0.145 0.04,0.027 0.077,0.053 0.108,0.077 0.658,0.538 -0.712,1.071 -1.18,1.269 -2.165,0.908 -4.396,1.648 -6.57,2.539 -2.668,1.089 -5.228,2.366 -7.754,3.748 -2.669,1.46 -5.272,3.021 -7.817,4.684 -2.19,1.432 -4.388,2.844 -6.28,4.646 -0.041,0.08 -0.086,0.153 -0.124,0.23 -0.043,0.083 -0.117,0.092 -0.18,0.063 -0.015,0.016 -0.028,0.027 -0.043,0.041 -0.019,0.051 -0.024,0.107 -0.046,0.158 -0.049,0.119 -0.249,0.119 -0.247,-0.029 -1.255,2.468 -2.537,4.92 -3.86,7.333 -0.079,0.142 -0.286,-0.003 -0.209,-0.143 1.38,-2.49 2.701,-4.991 3.988,-7.5 -0.016,-0.035 -0.019,-0.08 10e-4,-0.128 0.038,-0.101 0.069,-0.2 0.107,-0.3 0.116,-3.14 -0.363,-6.244 -0.82,-9.356 -0.531,-3.619 -1.201,-7.206 -2.013,-10.772 -0.769,-3.379 -1.663,-6.702 -2.807,-9.973 -0.932,-2.667 -2.043,-5.267 -2.948,-7.942 -0.196,-0.58 -0.809,-2.235 0.199,-2.069 0.048,0.006 0.102,0.02 0.156,0.033 1.117,0.331 2.274,2.563 2.841,3.47 0.976,1.559 1.783,3.219 2.591,4.87 1.822,3.722 3.057,7.707 4.087,11.711 1.542,5.998 1.507,12.481 -0.342,18.407 1.531,-3.061 2.984,-6.147 4.346,-9.27 -0.012,-0.029 -0.032,-0.059 -0.017,-0.09 0.043,-0.087 0.106,-0.159 0.152,-0.243 0.087,-2.563 -0.302,-5.092 -0.675,-7.633 -0.435,-2.967 -0.983,-5.91 -1.65,-8.836 -0.631,-2.77 -1.363,-5.495 -2.303,-8.18 -0.765,-2.186 -1.675,-4.319 -2.419,-6.515 -0.16,-0.473 -0.664,-1.833 0.165,-1.696 0.041,0.005 0.082,0.016 0.128,0.026 0.917,0.272 1.867,2.104 2.33,2.846 0.8,1.279 1.464,2.641 2.126,3.995 1.495,3.055 2.506,6.322 3.351,9.605 1.125,4.375 1.225,9.065 0.172,13.469 0.92,-2.238 1.809,-4.488 2.624,-6.776 0.102,-3.109 -0.368,-6.183 -0.821,-9.266 -0.53,-3.618 -1.2,-7.207 -2.011,-10.773 -0.771,-3.378 -1.661,-6.7 -2.808,-9.973 -0.932,-2.665 -2.041,-5.265 -2.949,-7.94 -0.195,-0.578 -0.808,-2.235 0.201,-2.07 0.049,0.008 0.099,0.021 0.156,0.033 1.116,0.331 2.273,2.563 2.841,3.47 0.976,1.559 1.783,3.22 2.591,4.871 1.821,3.724 3.057,7.706 4.087,11.709 1.155,4.499 1.417,9.272 0.706,13.879 0.408,-1.337 0.814,-2.676 1.184,-4.034 0.328,-1.21 0.623,-2.43 0.921,-3.648 -0.016,-0.017 -0.024,-0.038 -0.022,-0.069 0.005,-0.061 0.004,-0.119 0.007,-0.18 -0.062,-0.03 -0.102,-0.092 -0.07,-0.175 0.031,-0.08 0.058,-0.163 0.088,-0.244 0.095,-2.576 -0.299,-5.123 -0.674,-7.676 -0.436,-2.967 -0.983,-5.91 -1.65,-8.837 -0.63,-2.768 -1.363,-5.494 -2.302,-8.18 -0.765,-2.186 -1.675,-4.319 -2.419,-6.515 -0.161,-0.474 -0.663,-1.834 0.165,-1.696 0.039,0.005 0.082,0.017 0.126,0.027 0.916,0.271 1.868,2.104 2.331,2.846 0.802,1.277 1.464,2.64 2.125,3.994 1.495,3.055 2.509,6.321 3.354,9.605 0.652,2.54 0.957,5.187 0.899,7.822 0.066,-0.369 0.139,-0.737 0.203,-1.106 -0.031,-0.037 -0.048,-0.084 -0.025,-0.148 0.033,-0.098 0.063,-0.2 0.096,-0.302 -0.015,-3.144 -0.619,-6.224 -1.205,-9.315 -0.677,-3.595 -1.491,-7.153 -2.449,-10.682 -0.906,-3.345 -1.935,-6.629 -3.21,-9.851 -1.042,-2.626 -2.258,-5.178 -3.273,-7.813 -0.22,-0.571 -0.899,-2.201 0.116,-2.078 0.049,0.005 0.102,0.017 0.158,0.028 1.129,0.285 2.376,2.469 2.979,3.351 1.038,1.516 1.912,3.144 2.788,4.76 1.972,3.646 3.369,7.575 4.56,11.535 0.659,2.189 1.094,4.458 1.319,6.746 0.017,-0.054 0.032,-0.108 0.052,-0.161 -0.002,-0.248 -0.026,-0.494 -0.036,-0.741 -0.039,-0.02 -0.063,-0.06 -0.038,-0.115 0.01,-0.025 0.02,-0.05 0.029,-0.074 -0.105,-2.258 -0.521,-4.481 -0.942,-6.712 -0.556,-2.948 -1.226,-5.867 -2.01,-8.763 -0.745,-2.743 -1.588,-5.435 -2.634,-8.08 -0.854,-2.153 -1.851,-4.246 -2.684,-6.408 -0.18,-0.472 -0.738,-1.809 0.095,-1.708 z"
   clip-path="url(#SVGID_00000149365474198310391570000007872057993487680941_)"
   id="path45"
   transform="translate(2.4471621,-21.29018)" /><path
   style="display:inline;fill:#8748e6;fill-opacity:1"
   d="m 202.849,395.309 c -6.099,-0.015 -11.634,3.439 -16.256,7.126 -1.899,1.51 -3.706,3.172 -5.391,4.932 1.425,-2.187 2.674,-4.504 3.759,-6.867 2.468,-5.371 4.383,-11.643 2.916,-17.545 -0.014,-0.071 -0.057,-0.115 -0.109,-0.135 -0.048,-0.026 -0.105,-0.034 -0.173,0 -5.502,2.64 -8.987,8.155 -11.546,13.48 -1.105,2.296 -2.047,4.691 -2.818,7.13 0.072,-0.361 0.142,-0.723 0.202,-1.079 0.591,-3.358 0.768,-6.842 0.663,-10.252 -0.183,-5.905 -1.261,-12.376 -5.201,-17.009 -0.053,-0.057 -0.105,-0.076 -0.161,-0.07 -0.054,-10e-4 -0.107,0.016 -0.156,0.079 -3.751,4.814 -4.411,11.302 -4.333,17.214 0.037,2.559 0.258,5.144 0.659,7.684 -1.092,-3.031 -2.538,-5.977 -4.182,-8.742 -3.016,-5.082 -7.092,-10.222 -12.78,-12.371 -0.074,-0.025 -0.131,-0.016 -0.177,0.013 -0.05,0.025 -0.085,0.072 -0.098,0.146 -0.952,6.025 1.605,12.027 4.536,17.163 1.313,2.304 2.819,4.531 4.465,6.625 -1.578,-1.177 -3.22,-2.274 -4.905,-3.267 -5.096,-2.998 -11.064,-5.636 -17.101,-4.761 -0.074,0.005 -0.121,0.047 -0.146,0.096 -0.032,0.045 -0.041,0.104 -0.015,0.173 2.071,5.717 7.156,9.858 12.197,12.944 2.909,1.78 6.02,3.352 9.237,4.503 0.339,0.121 0.685,0.24 1.032,0.356 -2.501,-0.536 -5.048,-0.904 -7.588,-1.081 -5.895,-0.413 -12.412,-0.122 -17.431,3.349 -0.062,0.043 -0.089,0.098 -0.089,0.152 -0.008,0.055 0.007,0.112 0.066,0.165 4.398,4.196 10.795,5.641 16.685,6.155 2.586,0.227 5.224,0.294 7.829,0.135 -2.366,0.591 -4.701,1.339 -6.959,2.239 -5.49,2.189 -11.232,5.29 -14.244,10.595 -0.036,0.064 -0.036,0.127 -0.011,0.175 0.018,0.052 0.056,0.098 0.127,0.122 5.789,1.864 12.181,0.382 17.707,-1.712 3.187,-1.208 6.338,-2.703 9.215,-4.535 0.232,-0.148 0.467,-0.304 0.7,-0.453 -0.736,0.742 -1.427,1.538 -2.074,2.335 -2.068,2.554 -3.934,5.326 -5.508,8.216 -2.826,5.19 -5.273,11.241 -4.198,17.244 0.011,0.074 0.052,0.12 0.097,0.146 0.046,0.028 0.107,0.038 0.177,0.01 5.646,-2.26 9.621,-7.476 12.54,-12.618 1.24,-2.186 2.363,-4.478 3.287,-6.831 0.156,0.82 0.33,1.639 0.524,2.45 1.378,5.747 3.616,11.874 8.431,15.618 0.063,0.047 0.123,0.054 0.173,0.039 0.054,-0.01 0.102,-0.042 0.134,-0.111 2.682,-5.458 2.138,-11.992 0.864,-17.764 -0.599,-2.707 -1.374,-5.373 -2.393,-7.952 -0.397,-1.002 -1.204,-2.073 -1.209,-3.192 0,-0.556 0.081,-0.956 0.564,-1.279 1.137,-0.773 1.738,0.456 2.308,1.234 2.01,2.757 4.396,5.301 6.924,7.589 4.384,3.968 9.794,7.675 15.859,8.053 0.076,0.007 0.13,-0.022 0.165,-0.064 0.039,-0.036 0.061,-0.092 0.053,-0.17 -0.865,-6.035 -5.082,-11.018 -9.394,-15.059 -0.73,-0.689 -1.49,-1.353 -2.26,-2 2.743,0.445 5.55,0.645 8.315,0.647 5.912,0.011 12.415,-0.855 17.171,-4.641 0.058,-0.047 0.079,-0.103 0.078,-0.159 0.007,-0.054 -0.016,-0.11 -0.076,-0.155 -4.687,-3.907 -11.15,-4.782 -17.06,-4.897 -3.29,-0.063 -6.624,0.186 -9.867,0.719 -1.014,0.164 -2.044,0.371 -3.052,0.643 0.247,-0.128 0.495,-0.254 0.738,-0.385 3.018,-1.592 5.88,-3.585 8.506,-5.757 4.558,-3.765 9.008,-8.581 10.254,-14.533 0.018,-0.072 -0.002,-0.131 -0.041,-0.172 -0.025,-0.048 -0.078,-0.076 -0.155,-0.076 z"
   clip-path="url(#SVGID_00000149365474198310391570000007872057993487680941_)"
   id="path52"
   transform="translate(-124.80527,-11.463943)" /><path
   style="display:inline;fill:#8748e6;fill-opacity:1"
   d="m 706.183,381.309 c -6.099,-0.015 -11.634,3.439 -16.256,7.126 -1.899,1.51 -3.706,3.172 -5.391,4.932 1.425,-2.187 2.674,-4.504 3.759,-6.867 2.468,-5.371 4.383,-11.643 2.916,-17.545 -0.014,-0.071 -0.057,-0.115 -0.109,-0.135 -0.048,-0.026 -0.105,-0.034 -0.173,0 -5.502,2.64 -8.987,8.155 -11.546,13.48 -1.104,2.296 -2.047,4.691 -2.818,7.13 0.072,-0.361 0.142,-0.723 0.202,-1.079 0.591,-3.358 0.768,-6.842 0.663,-10.252 -0.183,-5.905 -1.261,-12.376 -5.201,-17.009 -0.053,-0.057 -0.104,-0.076 -0.161,-0.07 -0.054,-10e-4 -0.107,0.016 -0.156,0.079 -3.751,4.814 -4.411,11.302 -4.333,17.214 0.037,2.559 0.258,5.144 0.659,7.684 -1.092,-3.031 -2.538,-5.977 -4.182,-8.742 -3.016,-5.082 -7.092,-10.222 -12.78,-12.371 -0.074,-0.025 -0.131,-0.016 -0.177,0.013 -0.05,0.025 -0.085,0.072 -0.098,0.146 -0.952,6.025 1.606,12.027 4.536,17.163 1.313,2.304 2.819,4.531 4.465,6.625 -1.578,-1.177 -3.22,-2.274 -4.905,-3.267 -5.096,-2.998 -11.064,-5.636 -17.101,-4.761 -0.074,0.005 -0.121,0.047 -0.146,0.096 -0.032,0.045 -0.041,0.104 -0.015,0.173 2.071,5.717 7.156,9.858 12.197,12.944 2.909,1.78 6.021,3.352 9.237,4.503 0.339,0.121 0.685,0.24 1.032,0.356 -2.501,-0.536 -5.048,-0.904 -7.588,-1.081 -5.895,-0.413 -12.412,-0.122 -17.431,3.349 -0.062,0.043 -0.089,0.098 -0.089,0.152 -0.008,0.055 0.007,0.112 0.066,0.165 4.398,4.196 10.795,5.641 16.685,6.155 2.586,0.227 5.224,0.294 7.829,0.135 -2.366,0.591 -4.701,1.339 -6.959,2.239 -5.49,2.189 -11.232,5.29 -14.244,10.595 -0.036,0.064 -0.036,0.127 -0.011,0.175 0.018,0.052 0.056,0.098 0.127,0.122 5.789,1.864 12.181,0.382 17.707,-1.712 3.187,-1.208 6.338,-2.703 9.215,-4.535 0.232,-0.148 0.467,-0.304 0.7,-0.453 -0.736,0.742 -1.427,1.538 -2.074,2.335 -2.068,2.554 -3.934,5.326 -5.508,8.216 -2.826,5.19 -5.273,11.241 -4.198,17.244 0.011,0.074 0.052,0.12 0.097,0.146 0.046,0.028 0.107,0.038 0.177,0.01 5.646,-2.26 9.621,-7.476 12.54,-12.618 1.24,-2.186 2.363,-4.478 3.287,-6.831 0.156,0.82 0.33,1.639 0.524,2.45 1.378,5.747 3.616,11.874 8.431,15.618 0.063,0.047 0.123,0.054 0.173,0.039 0.054,-0.01 0.102,-0.042 0.134,-0.111 2.682,-5.458 2.138,-11.992 0.864,-17.764 -0.599,-2.707 -1.374,-5.373 -2.393,-7.952 -0.397,-1.002 -1.204,-2.073 -1.209,-3.192 0,-0.556 0.081,-0.956 0.565,-1.279 1.137,-0.773 1.738,0.456 2.308,1.234 2.01,2.757 4.396,5.301 6.924,7.589 4.384,3.968 9.794,7.675 15.859,8.053 0.076,0.007 0.13,-0.022 0.165,-0.064 0.039,-0.036 0.061,-0.092 0.053,-0.17 -0.865,-6.035 -5.082,-11.018 -9.394,-15.059 -0.73,-0.689 -1.49,-1.353 -2.26,-2 2.743,0.445 5.55,0.645 8.315,0.647 5.912,0.011 12.415,-0.855 17.171,-4.641 0.058,-0.047 0.079,-0.103 0.078,-0.159 0.007,-0.054 -0.016,-0.11 -0.076,-0.155 -4.687,-3.907 -11.15,-4.782 -17.06,-4.897 -3.29,-0.063 -6.624,0.186 -9.867,0.719 -1.014,0.164 -2.044,0.371 -3.052,0.643 0.247,-0.128 0.495,-0.254 0.738,-0.385 3.018,-1.592 5.88,-3.585 8.506,-5.757 4.558,-3.765 9.008,-8.581 10.254,-14.533 0.018,-0.072 -0.002,-0.131 -0.041,-0.172 -0.026,-0.048 -0.079,-0.076 -0.156,-0.076 z"
   clip-path="url(#SVGID_00000149365474198310391570000007872057993487680941_)"
   id="path53"
   transform="translate(30.997386,-8.1885307)" /><path
   style="display:inline;fill:#d73f92;fill-opacity:1"
   d="m 272.661,395.466 c -1.44,3.696 -3.207,7.133 -5.99,10.007 -0.744,0.771 -1.523,1.524 -2.437,2.096 -0.737,0.461 -2.403,0.907 -2.643,-0.4 -0.214,-1.169 0.814,-2.009 1.574,-2.741 0.672,-0.648 1.349,-1.284 1.965,-1.985 2.42,-2.756 4.045,-6.068 5.297,-9.487 0.164,-0.451 0.324,-0.903 0.476,-1.36 -1.003,-1.788 -2.126,-3.509 -3.348,-5.146 -0.005,0.008 -0.005,0.021 -0.006,0.027 -0.003,0.014 -0.01,0.055 -0.021,0.118 -0.039,0.214 -0.076,0.434 -0.115,0.649 -0.113,0.629 -0.229,1.257 -0.377,1.876 -0.3,1.255 -0.682,2.504 -1.193,3.689 -0.533,1.229 -1.127,2.467 -1.969,3.517 -0.878,1.098 -1.961,2.34 -3.497,1.99 -0.436,-0.104 -0.695,-0.578 -0.685,-0.993 0.027,-1.222 1.134,-2.088 1.801,-3.035 0.673,-0.954 1.232,-1.975 1.652,-3.059 0.754,-1.935 1.19,-3.946 1.622,-5.969 0.125,-0.599 0.25,-1.197 0.369,-1.799 -1.436,-1.608 -2.986,-3.01 -4.623,-4.283 -0.029,0.29 -0.064,0.576 -0.101,0.859 -0.291,2.206 -0.738,4.467 -1.469,6.572 -0.599,1.717 -1.696,5.202 -3.982,5.16 -0.446,-0.005 -0.792,-0.356 -0.9,-0.768 -0.276,-1.066 0.495,-2.205 0.946,-3.12 0.427,-0.866 0.782,-1.762 1.076,-2.682 0.571,-1.784 1.082,-3.664 1.35,-5.486 0.122,-0.848 0.221,-1.694 0.292,-2.543 -0.556,-0.368 -1.113,-0.728 -1.678,-1.087 -1.018,-0.636 -2.027,-1.287 -3.066,-1.869 -0.196,1.849 -0.493,3.699 -0.813,5.523 -0.191,1.093 -0.393,2.185 -0.697,3.251 -0.272,0.95 -0.506,1.928 -1.173,2.688 -0.648,0.734 -1.737,0.303 -2.173,-0.383 -0.589,-0.914 -0.031,-2.084 0.237,-3.015 0.291,-1.02 0.537,-2.055 0.744,-3.097 0.365,-1.847 0.682,-3.707 0.97,-5.568 0.037,-0.23 0.071,-0.464 0.107,-0.7 -1.444,-0.52 -2.937,-0.819 -4.407,-1.01 -0.48,-0.063 -0.958,-0.105 -1.436,-0.133 0.151,0.708 0.232,1.436 0.288,2.111 0.099,1.229 0.145,2.501 -0.047,3.725 -0.174,1.11 -0.494,2.605 -1.646,3.104 -0.413,0.181 -0.951,0.077 -1.156,-0.367 -0.44,-0.963 -0.15,-2.079 0,-3.086 0.158,-1.046 0.227,-2.109 0.186,-3.167 -0.03,-0.795 -0.101,-1.572 -0.197,-2.351 -0.182,0.005 -0.364,0.011 -0.545,0.018 -1.57,0.065 -2.956,0.443 -3.913,1.696 -1.617,-0.043 -2.829,0.822 -3.951,1.873 -0.474,0.442 -0.907,0.921 -1.313,1.424 0.574,0.546 1.183,1.051 1.82,1.525 0.905,0.677 1.859,1.271 2.871,1.773 0.858,0.425 1.838,0.832 2.337,1.692 0.244,0.425 0.017,0.924 -0.368,1.157 -1.06,0.64 -2.495,0.063 -3.486,-0.454 -1.103,-0.581 -2.112,-1.316 -3.064,-2.116 -0.524,-0.441 -1.079,-0.938 -1.572,-1.477 -0.04,0.063 -0.078,0.124 -0.116,0.188 -0.884,1.484 -1.633,3.069 -2.176,4.769 -0.051,0.162 -0.096,0.326 -0.14,0.491 0.211,0.109 0.422,0.213 0.633,0.316 1.769,0.872 3.536,1.75 5.346,2.537 0.973,0.424 1.96,0.836 2.969,1.163 0.856,0.278 1.972,0.542 2.345,1.463 0.304,0.754 0.026,1.892 -0.947,1.995 -1.075,0.113 -2.128,-0.315 -3.125,-0.689 -1.034,-0.389 -2.042,-0.847 -3.036,-1.332 -1.588,-0.775 -3.195,-1.547 -4.738,-2.416 -0.074,0.698 -0.126,1.403 -0.166,2.115 -0.071,1.167 -0.128,2.322 -0.157,3.479 0.73,0.432 1.478,0.834 2.231,1.214 1.712,0.862 3.617,1.59 5.482,2.144 0.986,0.294 1.974,0.483 2.981,0.675 0.912,0.176 2.041,0.191 2.695,0.965 0.274,0.325 0.358,0.809 0.105,1.178 -0.708,1.04 -2.229,1.1 -3.364,0.945 -1.142,-0.154 -2.275,-0.409 -3.378,-0.754 -2.105,-0.654 -4.195,-1.56 -6.134,-2.611 -0.199,-0.11 -0.402,-0.223 -0.604,-0.339 0.073,1.799 0.265,3.609 0.645,5.455 0.054,0.264 0.109,0.527 0.169,0.79 0.602,0.273 1.208,0.538 1.817,0.804 1.922,0.826 3.845,1.661 5.895,2.126 1.143,0.258 2.287,0.365 3.454,0.365 1.109,10e-4 2.319,-0.371 3.292,0.287 0.345,0.233 0.582,0.718 0.414,1.132 -0.615,1.485 -2.426,1.699 -3.867,1.718 -1.348,0.015 -2.699,-0.184 -4.01,-0.495 -1.255,-0.298 -2.49,-0.691 -3.678,-1.192 -0.651,-0.277 -1.289,-0.573 -1.926,-0.872 -0.052,-0.024 -0.513,-0.241 -0.227,-0.107 -0.046,-0.023 -0.096,-0.048 -0.145,-0.069 0.63,1.95 1.399,3.871 2.284,5.722 1.336,0.408 2.691,0.743 4.054,1.026 1.832,0.375 3.664,0.652 5.536,0.653 1.909,0 3.707,-0.298 5.584,-0.609 0.98,-0.162 2.493,-0.557 3.077,0.569 0.602,1.171 -0.862,1.999 -1.752,2.294 -1.892,0.635 -3.923,0.869 -5.915,0.923 -2.874,0.076 -5.816,-0.43 -8.628,-1.201 1.36,2.247 2.986,4.287 5.07,5.814 2.053,1.506 4.419,2.348 6.755,2.632 4.825,0.591 9.492,-1.081 13.623,-3.056 1.457,-0.697 2.918,-1.444 4.323,-2.271 1.607,-0.932 3.156,-1.966 4.618,-3.13 3.576,-2.847 6.482,-6.818 6.799,-11.998 0.173,-2.821 -0.631,-5.733 -1.811,-8.396 -0.024,0.07 -0.052,0.139 -0.079,0.206 z"
   id="path46" /><path
   style="display:inline;fill:#d73f92;fill-opacity:1"
   d="m 270.005,465.001 c 0.49,0.021 0.939,-0.68 1.267,-1.854 0.329,-1.172 0.569,-2.82 0.422,-4.625 -0.057,-0.895 -0.345,-5.487 -1.694,-11.651 -1.314,-6.17 -3.751,-13.829 -6.598,-21.163 -2.828,-7.346 -6.004,-14.398 -8.322,-19.679 -2.313,-5.28 -3.841,-8.768 -3.841,-8.768 -1.393,-3.251 -1.537,-3.196 -0.315,0.125 0,0 1.343,3.565 3.377,8.964 2.041,5.393 4.843,12.595 7.269,20.013 2.448,7.411 4.454,15.047 5.436,21.084 1.015,6.037 1.086,10.411 1.141,11.265 0.144,1.721 0.299,3.268 0.614,4.406 0.314,1.136 0.754,1.861 1.244,1.883 z"
   id="path47" /><path
   style="display:inline;fill:#d73f92;fill-opacity:1"
   d="m 311.632,435.431 c -3.308,2.19 -6.731,3.981 -10.662,4.728 -1.052,0.201 -2.123,0.369 -3.198,0.309 -0.869,-0.048 -2.488,-0.642 -1.931,-1.85 0.498,-1.079 1.822,-1.174 2.865,-1.333 0.924,-0.144 1.843,-0.273 2.751,-0.492 3.565,-0.857 6.802,-2.629 9.794,-4.702 0.395,-0.275 0.786,-0.553 1.173,-0.839 0.21,-2.039 0.283,-4.092 0.227,-6.134 -0.008,0.004 -0.015,0.014 -0.02,0.019 -0.01,0.01 -0.039,0.039 -0.085,0.085 -0.155,0.153 -0.313,0.31 -0.468,0.464 -0.455,0.45 -0.912,0.896 -1.388,1.317 -0.97,0.852 -2,1.654 -3.103,2.327 -1.144,0.697 -2.342,1.368 -3.635,1.74 -1.35,0.392 -2.95,0.783 -4.005,-0.388 -0.297,-0.336 -0.235,-0.873 0.013,-1.205 0.727,-0.984 2.129,-1.056 3.22,-1.444 1.1,-0.393 2.145,-0.903 3.113,-1.548 1.732,-1.148 3.246,-2.539 4.766,-3.944 0.447,-0.418 0.893,-0.835 1.337,-1.257 -0.247,-2.144 -0.707,-4.182 -1.311,-6.165 -0.192,0.22 -0.385,0.434 -0.578,0.645 -1.509,1.636 -3.177,3.226 -4.985,4.525 -1.48,1.059 -4.385,3.275 -6.229,1.924 -0.363,-0.262 -0.443,-0.748 -0.293,-1.148 0.387,-1.03 1.674,-1.516 2.571,-2.003 0.847,-0.463 1.653,-0.99 2.424,-1.572 1.494,-1.13 2.995,-2.371 4.264,-3.708 0.588,-0.621 1.157,-1.257 1.702,-1.909 -0.241,-0.621 -0.489,-1.237 -0.744,-1.855 -0.465,-1.106 -0.914,-2.22 -1.43,-3.295 -1.225,1.398 -2.534,2.739 -3.846,4.048 -0.786,0.781 -1.58,1.558 -2.442,2.255 -0.771,0.62 -1.525,1.284 -2.508,1.521 -0.954,0.228 -1.594,-0.753 -1.556,-1.565 0.045,-1.086 1.177,-1.72 1.931,-2.327 0.826,-0.665 1.623,-1.37 2.392,-2.102 1.362,-1.299 2.694,-2.637 4.002,-3.992 0.162,-0.168 0.325,-0.339 0.49,-0.511 -0.882,-1.258 -1.929,-2.362 -3.021,-3.364 -0.357,-0.329 -0.722,-0.639 -1.097,-0.938 -0.283,0.667 -0.638,1.31 -0.98,1.895 -0.627,1.061 -1.323,2.127 -2.184,3.016 -0.782,0.808 -1.905,1.845 -3.133,1.59 -0.442,-0.091 -0.823,-0.485 -0.734,-0.967 0.194,-1.04 1.076,-1.785 1.777,-2.522 0.731,-0.763 1.401,-1.593 1.978,-2.481 0.432,-0.667 0.823,-1.343 1.192,-2.034 -0.151,-0.102 -0.304,-0.203 -0.456,-0.3 -1.321,-0.853 -2.671,-1.342 -4.176,-0.868 -1.297,-0.968 -2.787,-0.958 -4.309,-0.745 -0.642,0.089 -1.272,0.23 -1.894,0.406 0.155,0.777 0.36,1.54 0.609,2.295 0.35,1.075 0.787,2.111 1.324,3.105 0.457,0.841 1.023,1.738 0.937,2.73 -0.046,0.487 -0.52,0.764 -0.969,0.733 -1.234,-0.088 -2.075,-1.386 -2.588,-2.38 -0.566,-1.109 -0.968,-2.293 -1.285,-3.495 -0.176,-0.664 -0.342,-1.387 -0.435,-2.112 -0.069,0.028 -0.137,0.056 -0.203,0.087 -1.579,0.702 -3.103,1.567 -4.526,2.644 -0.135,0.103 -0.266,0.211 -0.398,0.32 0.11,0.211 0.223,0.417 0.335,0.624 0.944,1.73 1.883,3.467 2.909,5.153 0.551,0.907 1.12,1.813 1.755,2.66 0.541,0.721 1.3,1.579 1.074,2.547 -0.186,0.791 -1.067,1.562 -1.923,1.086 -0.945,-0.528 -1.558,-1.484 -2.157,-2.364 -0.622,-0.914 -1.182,-1.869 -1.715,-2.839 -0.85,-1.548 -1.721,-3.105 -2.48,-4.704 -0.463,0.528 -0.912,1.075 -1.354,1.633 -0.73,0.912 -1.442,1.825 -2.133,2.754 0.349,0.773 0.728,1.532 1.124,2.277 0.903,1.69 2.042,3.382 3.248,4.91 0.636,0.809 1.334,1.532 2.048,2.27 0.644,0.669 1.558,1.332 1.647,2.342 0.037,0.424 -0.174,0.866 -0.594,1.023 -1.177,0.442 -2.454,-0.385 -3.295,-1.165 -0.844,-0.783 -1.623,-1.646 -2.325,-2.563 -1.344,-1.748 -2.531,-3.691 -3.509,-5.669 -0.1,-0.204 -0.201,-0.412 -0.3,-0.624 -0.976,1.513 -1.863,3.103 -2.614,4.83 -0.108,0.247 -0.216,0.494 -0.318,0.744 0.335,0.569 0.678,1.136 1.023,1.704 1.094,1.782 2.185,3.572 3.594,5.133 0.784,0.869 1.657,1.616 2.613,2.288 0.904,0.641 2.108,1.033 2.525,2.131 0.146,0.391 0.061,0.923 -0.314,1.164 -1.359,0.859 -2.963,-0.009 -4.151,-0.823 -1.11,-0.764 -2.099,-1.705 -2.992,-2.715 -0.853,-0.968 -1.637,-2.001 -2.318,-3.094 -0.372,-0.602 -0.724,-1.212 -1.072,-1.822 -0.027,-0.051 -0.28,-0.492 -0.123,-0.217 -0.024,-0.046 -0.052,-0.095 -0.079,-0.142 -0.608,1.958 -1.086,3.971 -1.431,5.992 0.856,1.104 1.773,2.159 2.723,3.176 1.282,1.36 2.62,2.643 4.149,3.723 1.561,1.101 3.201,1.893 4.915,2.72 0.893,0.431 2.357,0.98 2.186,2.237 -0.182,1.305 -1.856,1.138 -2.753,0.866 -1.911,-0.571 -3.708,-1.55 -5.366,-2.653 -2.395,-1.593 -4.506,-3.703 -6.361,-5.953 -0.182,2.62 -0.027,5.226 0.796,7.673 0.81,2.415 2.259,4.466 4.004,6.044 3.604,3.262 8.383,4.584 12.896,5.351 1.594,0.271 3.218,0.501 4.843,0.634 1.85,0.164 3.713,0.211 5.577,0.103 4.564,-0.267 9.228,-1.84 12.47,-5.891 1.767,-2.206 2.787,-5.05 3.357,-7.905 -0.059,0.036 -0.121,0.078 -0.181,0.117 z"
   id="path48" />
		
		
		
	</g><path
   style="display:inline;fill:#3a02c1;fill-opacity:1"
   d="m 910.763,457.352 -22.78,-2.169 -8.678,-2.169 h -20.611 l -30.373,4.338 -6.508,-3.253 -8.678,-10.848 -11.934,-6.509 -14.102,-6.508 -13.017,-4.34 c 0,0 -10.848,-8.678 -14.102,-9.762 0,0 -21.695,-11.934 -23.864,-10.849 -2.17,1.086 -16.271,-5.424 -16.271,-5.424 l -11.932,-5.423 c -1.464,0.293 -2.925,0.585 -4.282,0.855 -0.038,-0.021 -0.073,-0.048 -0.113,-0.066 -0.768,-0.355 -1.47,-0.695 -1.56,-0.757 -0.089,-0.063 -0.851,-0.18 -1.688,-0.259 -0.841,-0.081 -1.495,-1.124 -1.456,-2.319 0.042,-1.194 -0.038,-2.233 -0.174,-2.311 -0.137,-0.076 -1.004,-0.651 -1.929,-1.279 -0.927,-0.624 -1.44,-1.26 -1.14,-1.408 0.301,-0.151 0.081,-0.847 -0.488,-1.543 -0.566,-0.699 -1.86,-1.274 -2.872,-1.281 -1.013,-0.007 -2.581,0.192 -3.489,0.442 -0.908,0.246 -1.893,-0.463 -2.19,-1.581 -0.297,-1.116 -1.212,-1.855 -2.034,-1.645 -0.822,0.211 -1.987,0.517 -2.589,0.671 -0.604,0.159 -1.285,-0.38 -1.515,-1.198 -0.231,-0.815 -0.998,-0.76 -1.705,0.126 -0.706,0.887 -1.769,1.217 -2.364,0.735 -0.596,-0.48 -1.818,-0.87 -2.715,-0.867 -0.894,0.003 -1.795,0.84 -1.998,1.858 -0.204,1.016 -0.758,1.401 -1.23,0.85 -0.472,-0.549 -1.353,-0.398 -1.961,0.335 -0.605,0.733 -1.444,1.135 -1.866,0.894 -0.423,-0.24 -0.905,-1.036 -1.074,-1.765 -0.171,-0.729 -0.389,-1.577 -0.484,-1.886 -0.096,-0.308 -0.814,-0.563 -1.6,-0.568 -0.784,-0.004 -1.96,0.1 -2.613,0.232 -0.141,0.028 -0.281,0.087 -0.419,0.154 -3.639,-2.62 -8.858,-4.86 -8.858,-4.86 -7.593,0 -7.593,0 -7.593,0 l -10.418,3.622 c -0.245,-0.403 -0.582,-0.703 -0.973,-0.802 -0.854,-0.219 -2.277,-0.429 -3.166,-0.474 -0.89,-0.041 -1.529,1.402 -1.431,3.213 l -7.15,2.486 c -0.458,-0.259 -0.999,-0.766 -1.328,-1.286 -0.405,-0.643 -1.386,-0.91 -2.172,-0.593 -0.788,0.317 -1.214,0.995 -0.942,1.503 0.27,0.511 0.062,0.851 -0.462,0.756 -0.528,-0.093 -1.092,0.319 -1.258,0.923 -0.165,0.6 -1.328,1.087 -2.585,1.082 -1.258,-0.006 -1.889,0.32 -1.4,0.729 0.097,0.08 0.175,0.132 0.251,0.181 -0.071,0.241 -0.128,0.625 -0.153,1.124 -0.002,0.039 -0.007,0.079 -0.01,0.118 l -4.769,0.434 -8.04,3.093 c -0.72,-0.149 -1.651,-0.038 -2.254,0.313 -0.696,0.41 -1.725,0.573 -2.283,0.363 -0.559,-0.208 -1.154,-0.451 -1.324,-0.539 -0.172,-0.087 -0.589,-0.761 -0.924,-1.497 -0.336,-0.739 -1.09,-0.803 -1.672,-0.145 -0.585,0.659 -1.83,0.528 -2.771,-0.29 -0.94,-0.819 -1.845,-0.77 -2.006,0.113 -0.162,0.878 -0.529,1.937 -0.816,2.354 -0.289,0.415 -0.993,1.305 -1.567,1.978 -0.574,0.67 -1.734,1.183 -2.581,1.138 -0.845,-0.047 -1.449,0.719 -1.34,1.698 0.109,0.983 -0.749,2.041 -1.907,2.353 -1.159,0.31 -2.312,0.939 -2.561,1.396 -0.248,0.455 -0.713,0.419 -1.03,-0.083 -0.317,-0.502 -1.391,-1.516 -2.385,-2.253 -0.99,-0.735 -2.335,-0.681 -2.984,0.127 -0.65,0.807 -0.505,2.226 0.325,3.148 0.828,0.924 0.877,2.113 0.109,2.646 -0.112,0.077 -0.229,0.171 -0.349,0.271 l -0.691,0.087 c -2.431,1.104 -4.996,2.027 -7.541,2.8 -0.355,-0.068 -0.734,-0.06 -1.08,0.08 -0.267,0.107 -0.487,0.258 -0.658,0.428 -9.303,2.592 -17.841,3.202 -17.841,3.202 l -6.509,6.508 -0.035,0.026 c -0.08,-0.035 -0.146,-0.065 -0.187,-0.086 -0.172,-0.087 -0.589,-0.761 -0.924,-1.497 -0.336,-0.739 -1.09,-0.803 -1.672,-0.145 -0.585,0.659 -1.83,0.528 -2.771,-0.29 -0.94,-0.819 -1.845,-0.77 -2.006,0.113 -0.162,0.878 -0.529,1.937 -0.816,2.354 -0.289,0.415 -0.993,1.305 -1.567,1.978 -0.574,0.67 -1.734,1.183 -2.581,1.138 -0.845,-0.047 -1.449,0.719 -1.34,1.698 0.109,0.983 -0.749,2.041 -1.907,2.353 -1.159,0.31 -2.312,0.939 -2.561,1.396 -0.248,0.455 -0.713,0.419 -1.03,-0.083 -0.317,-0.502 -1.391,-1.516 -2.385,-2.253 -0.99,-0.735 -2.335,-0.681 -2.984,0.127 -0.65,0.807 -0.505,2.226 0.325,3.148 0.828,0.924 0.877,2.113 0.109,2.646 -0.768,0.528 -1.766,1.695 -2.215,2.592 -0.449,0.897 0.172,2.027 1.385,2.514 1.212,0.485 1.868,1.043 1.46,1.237 -0.405,0.193 -1.285,0.485 -1.95,0.649 -0.632,0.155 -0.666,0.95 -0.107,1.804 l -2.047,2.046 c -0.072,-0.029 -0.147,-0.061 -0.21,-0.084 -0.732,-0.28 -1.899,-0.174 -2.6,0.234 -0.696,0.41 -1.725,0.573 -2.283,0.363 -0.559,-0.208 -1.154,-0.451 -1.324,-0.539 -0.172,-0.087 -0.589,-0.761 -0.924,-1.497 -0.336,-0.739 -1.09,-0.803 -1.672,-0.145 -0.585,0.659 -1.83,0.528 -2.771,-0.29 -0.94,-0.819 -1.845,-0.77 -2.006,0.113 -0.162,0.878 -0.529,1.937 -0.816,2.354 -0.289,0.415 -0.993,1.305 -1.567,1.978 -0.574,0.67 -1.734,1.183 -2.581,1.138 -0.845,-0.047 -1.449,0.719 -1.34,1.698 0.109,0.983 -0.749,2.041 -1.907,2.353 -1.159,0.31 -2.311,0.939 -2.561,1.396 -0.248,0.455 -0.713,0.419 -1.03,-0.083 -0.317,-0.502 -1.391,-1.516 -2.385,-2.253 -0.99,-0.735 -2.335,-0.681 -2.984,0.127 -0.65,0.807 -0.505,2.226 0.325,3.148 0.828,0.924 0.877,2.113 0.109,2.646 -0.759,0.521 -1.739,1.666 -2.196,2.558 -0.249,-0.285 -0.33,-0.51 -0.168,-0.59 0.301,-0.151 0.081,-0.847 -0.488,-1.543 -0.566,-0.699 -1.86,-1.274 -2.872,-1.281 -1.013,-0.007 -2.581,0.192 -3.489,0.442 -0.908,0.246 -1.893,-0.463 -2.19,-1.581 -0.297,-1.116 -1.212,-1.855 -2.034,-1.645 -0.822,0.211 -1.987,0.517 -2.589,0.671 -0.603,0.159 -1.285,-0.38 -1.515,-1.198 -0.23,-0.815 -0.998,-0.76 -1.705,0.126 -0.706,0.887 -1.77,1.217 -2.364,0.735 -0.596,-0.48 -1.818,-0.87 -2.715,-0.867 -0.895,0.003 -1.795,0.84 -1.998,1.858 -0.204,1.016 -0.758,1.401 -1.23,0.85 -0.472,-0.549 -1.352,-0.398 -1.961,0.335 -0.088,0.106 -0.183,0.204 -0.278,0.296 l -2.748,-1.526 c -0.152,-0.63 -0.318,-1.267 -0.398,-1.526 -0.096,-0.308 -0.815,-0.563 -1.6,-0.568 -0.784,-0.004 -1.96,0.1 -2.613,0.232 -0.394,0.079 -0.784,0.337 -1.083,0.654 -0.796,-0.106 -1.631,-0.208 -2.495,-0.307 -0.506,-0.385 -1.112,-0.753 -1.677,-0.993 -0.849,-0.359 -1.719,-0.09 -2.17,0.588 -0.775,-0.077 -1.554,-0.154 -2.331,-0.232 0.413,-1.199 0.033,-2.432 -0.914,-2.811 -1.013,-0.404 -2.488,-0.396 -3.278,0.02 -0.791,0.413 -2.082,-0.104 -2.866,-1.15 -0.786,-1.047 -1.594,-1.557 -1.793,-1.135 -0.201,0.423 -0.19,0.081 0.022,-0.764 0.211,-0.842 -0.243,-1.824 -1.013,-2.18 -0.768,-0.355 -1.47,-0.695 -1.56,-0.757 -0.089,-0.063 -0.85,-0.18 -1.688,-0.259 -0.841,-0.081 -1.495,-1.124 -1.456,-2.319 0.042,-1.194 -0.038,-2.233 -0.174,-2.311 -0.137,-0.076 -1.004,-0.651 -1.929,-1.279 -0.927,-0.624 -1.439,-1.26 -1.14,-1.408 0.301,-0.151 0.081,-0.847 -0.488,-1.543 -0.566,-0.699 -1.86,-1.274 -2.872,-1.281 -1.013,-0.007 -2.581,0.192 -3.489,0.442 -0.908,0.246 -1.893,-0.463 -2.19,-1.581 -0.297,-1.116 -1.212,-1.855 -2.034,-1.645 -0.822,0.211 -1.987,0.517 -2.589,0.671 -0.603,0.159 -1.285,-0.38 -1.515,-1.198 -0.23,-0.815 -0.998,-0.76 -1.705,0.126 -0.706,0.887 -1.77,1.217 -2.364,0.735 -0.596,-0.48 -1.818,-0.87 -2.715,-0.867 -0.895,0.003 -1.795,0.84 -1.998,1.857 -0.204,1.016 -0.758,1.401 -1.23,0.851 -0.472,-0.549 -1.353,-0.398 -1.961,0.335 -0.605,0.733 -1.444,1.135 -1.866,0.894 -0.423,-0.24 -0.905,-1.036 -1.074,-1.765 -0.171,-0.729 -0.389,-1.577 -0.484,-1.886 -0.096,-0.308 -0.814,-0.563 -1.6,-0.568 -0.784,-0.004 -1.96,0.1 -2.613,0.232 -0.653,0.132 -1.336,0.732 -1.519,1.335 -0.184,0.602 -0.673,0.584 -1.09,-0.042 -0.415,-0.625 -1.608,-1.496 -2.647,-1.938 -1.039,-0.44 -2.123,0.053 -2.411,1.099 -0.007,0.025 -0.01,0.05 -0.016,0.074 -0.686,0.152 -1.579,0.211 -2.401,0.158 -0.324,-0.529 -0.85,-0.992 -1.498,-1.249 -1.243,-0.492 -2.993,-0.788 -3.889,-0.653 -0.896,0.137 -1.71,1.073 -1.807,2.086 -0.096,1.01 -1.212,1.504 -2.484,1.098 -1.077,-0.345 -1.893,0.004 -2.026,0.776 -0.174,-0.531 -0.416,-1.107 -0.686,-1.596 -0.527,-0.952 -0.862,-2.096 -0.75,-2.541 0.112,-0.443 -0.46,0.234 -1.275,1.509 -0.814,1.276 -1.723,2.395 -2.025,2.488 -0.3,0.095 -0.468,-0.789 -0.368,-1.962 0.096,-1.175 -0.521,-2.313 -1.369,-2.527 -0.854,-0.219 -2.277,-0.429 -3.166,-0.474 -0.893,-0.041 -1.535,1.413 -1.431,3.233 0.107,1.816 -0.353,3.271 -1.017,3.232 -0.663,-0.039 -1.521,0.255 -1.904,0.656 -0.386,0.398 -1.222,0.336 -1.858,-0.141 -0.637,-0.477 -1.565,-0.989 -2.061,-1.133 -0.493,-0.148 -1.231,-0.792 -1.638,-1.436 -0.405,-0.643 -1.386,-0.91 -2.172,-0.593 -0.788,0.317 -1.214,0.995 -0.942,1.503 0.27,0.511 0.061,0.851 -0.462,0.756 -0.528,-0.093 -1.092,0.319 -1.258,0.923 -0.165,0.6 -1.328,1.087 -2.585,1.082 -1.258,-0.006 -1.889,0.32 -1.4,0.729 0.097,0.08 0.175,0.132 0.25,0.181 -0.07,0.241 -0.127,0.625 -0.152,1.124 -0.058,1.095 -0.377,2.219 -0.707,2.494 -0.332,0.277 -0.709,0.799 -0.841,1.161 -0.131,0.358 -0.755,-0.214 -1.385,-1.278 -0.63,-1.061 -1.618,-1.334 -2.194,-0.605 -0.574,0.727 -1.876,1.212 -2.889,1.075 -1.013,-0.136 -1.192,0.758 -0.397,1.988 0.532,0.819 0.55,1.565 0.148,2.001 l -1.258,-0.187 c 0.506,-0.169 1.007,-0.289 1.265,-0.292 0.363,-0.006 -0.135,-0.485 -1.11,-1.07 -0.978,-0.582 -2.37,-1.29 -3.104,-1.565 -0.732,-0.28 -1.899,-0.174 -2.6,0.234 -0.696,0.41 -1.725,0.573 -2.283,0.363 -0.559,-0.208 -1.154,-0.451 -1.324,-0.539 -0.172,-0.087 -0.589,-0.761 -0.924,-1.497 -0.336,-0.739 -1.09,-0.803 -1.672,-0.145 -0.585,0.659 -1.83,0.528 -2.771,-0.29 -0.94,-0.819 -1.845,-0.77 -2.006,0.113 -0.139,0.753 -0.429,1.636 -0.69,2.137 l -9.452,-1.4 -9.764,-1.085 -13.017,-2.169 -11.933,-3.254 -14.102,-7.593 -9.762,-6.51 -8.754,-2.917 c 0.28,-0.044 0.517,-0.054 0.612,-0.012 0.164,0.073 0.221,-0.332 0.125,-0.899 -0.096,-0.568 -0.502,-1.301 -0.9,-1.627 -0.398,-0.327 -0.977,-0.904 -1.282,-1.283 -0.308,-0.377 -0.439,-1.396 -0.294,-2.262 0.145,-0.865 -0.268,-1.28 -0.916,-0.922 -0.648,0.358 -1.444,0.479 -1.77,0.268 -0.325,-0.211 -0.817,-0.068 -1.094,0.316 -0.275,0.386 -0.962,0.619 -1.523,0.518 -0.563,-0.1 -1.015,-0.777 -1.004,-1.504 0.012,-0.728 -0.218,-1.131 -0.51,-0.897 -0.291,0.234 -0.812,0.316 -1.157,0.18 -0.346,-0.137 -0.738,-0.979 -0.872,-1.873 -0.132,-0.893 -0.813,-1.523 -1.512,-1.398 -0.699,0.125 -1.513,0.639 -1.807,1.141 -0.295,0.502 -1.188,0.66 -1.982,0.352 -0.796,-0.308 -1.418,-0.312 -1.383,-0.009 0.035,0.303 -0.077,0.109 -0.251,-0.431 -0.173,-0.539 -0.763,-0.926 -1.312,-0.857 -0.547,0.068 -1.053,0.122 -1.124,0.119 -0.07,-0.004 -0.532,0.193 -1.023,0.438 -0.492,0.245 -1.214,-0.106 -1.604,-0.781 -0.389,-0.675 -0.791,-1.223 -0.893,-1.218 -0.102,0.004 -0.78,-0.015 -1.508,-0.043 -0.729,-0.026 -1.23,-0.201 -1.116,-0.387 0.114,-0.188 -0.247,-0.496 -0.802,-0.685 -0.555,-0.191 -1.469,-0.064 -2.031,0.281 -0.563,0.346 -1.361,0.996 -1.777,1.447 -0.418,0.449 -1.207,0.396 -1.757,-0.119 -0.549,-0.516 -1.311,-0.609 -1.692,-0.209 -0.382,0.4 -0.921,0.971 -1.201,1.264 -0.279,0.296 -0.842,0.233 -1.251,-0.141 -0.409,-0.372 -0.814,-0.077 -0.899,0.657 -0.085,0.733 -0.561,1.282 -1.055,1.222 -0.48,-0.059 -1.248,0.135 -1.745,0.428 -0.263,-0.176 -0.55,-0.37 -0.847,-0.571 -0.927,-0.624 -1.439,-1.26 -1.14,-1.408 0.301,-0.151 0.081,-0.847 -0.488,-1.543 -0.566,-0.699 -1.86,-1.274 -2.872,-1.281 -1.013,-0.007 -2.581,0.192 -3.489,0.442 -0.908,0.246 -1.893,-0.463 -2.19,-1.581 -0.297,-1.116 -1.212,-1.855 -2.034,-1.645 -0.822,0.211 -1.987,0.517 -2.589,0.671 -0.604,0.159 -1.285,-0.38 -1.515,-1.198 -0.23,-0.815 -0.998,-0.76 -1.705,0.126 -0.706,0.887 -1.77,1.217 -2.364,0.735 -0.596,-0.48 -1.818,-0.87 -2.715,-0.867 -0.785,0.003 -1.575,0.648 -1.893,1.495 l -6.283,-3.142 c 0.17,-0.015 0.313,-0.014 0.381,0.016 0.164,0.073 0.221,-0.332 0.125,-0.899 -0.096,-0.568 -0.502,-1.301 -0.9,-1.627 -0.398,-0.327 -0.977,-0.904 -1.282,-1.283 -0.308,-0.377 -0.438,-1.397 -0.294,-2.262 0.145,-0.865 -0.268,-1.28 -0.916,-0.922 -0.648,0.358 -1.444,0.478 -1.77,0.268 -0.325,-0.211 -0.817,-0.068 -1.094,0.316 -0.275,0.386 -0.962,0.619 -1.523,0.518 -0.563,-0.1 -1.015,-0.777 -1.004,-1.504 0.012,-0.728 -0.218,-1.131 -0.51,-0.896 -0.291,0.234 -0.811,0.316 -1.157,0.18 -0.346,-0.137 -0.738,-0.978 -0.872,-1.873 -0.132,-0.893 -0.813,-1.523 -1.512,-1.398 -0.699,0.125 -1.513,0.639 -1.807,1.141 -0.295,0.502 -1.188,0.66 -1.982,0.352 -0.796,-0.308 -1.418,-0.312 -1.383,-0.009 0.035,0.303 -0.077,0.109 -0.251,-0.431 -0.173,-0.539 -0.763,-0.926 -1.311,-0.857 -0.547,0.068 -1.053,0.122 -1.124,0.119 -0.07,-0.004 -0.532,0.193 -1.023,0.439 -0.492,0.245 -1.214,-0.106 -1.604,-0.781 -0.389,-0.675 -0.791,-1.223 -0.893,-1.218 -0.101,0.004 -0.78,-0.015 -1.508,-0.043 -0.729,-0.026 -1.23,-0.201 -1.116,-0.387 0.114,-0.188 -0.247,-0.496 -0.802,-0.685 -0.555,-0.192 -1.469,-0.064 -2.031,0.281 -0.563,0.346 -1.361,0.996 -1.777,1.447 -0.418,0.449 -1.207,0.397 -1.757,-0.119 -0.549,-0.516 -1.311,-0.609 -1.692,-0.209 -0.382,0.4 -0.921,0.971 -1.201,1.264 -0.279,0.296 -0.842,0.232 -1.251,-0.141 -0.409,-0.372 -0.813,-0.077 -0.899,0.657 -0.085,0.733 -0.561,1.282 -1.055,1.222 -0.496,-0.06 -1.307,0.146 -1.801,0.455 -0.494,0.31 -0.703,1.084 -0.466,1.717 0.237,0.633 0.063,1.037 -0.387,0.896 -0.451,-0.142 -0.886,0.245 -0.97,0.86 -0.082,0.614 -0.408,1.126 -0.725,1.138 -0.317,0.013 -0.858,-0.261 -1.203,-0.605 -0.346,-0.345 -0.758,-0.739 -0.917,-0.877 -0.159,-0.137 -0.646,-0.03 -1.081,0.237 -0.436,0.268 -1.051,0.73 -1.366,1.029 -0.315,0.298 -0.486,0.865 -0.38,1.262 0.106,0.397 -0.171,0.556 -0.617,0.353 -0.445,-0.202 -1.405,-0.274 -2.133,-0.16 -0.727,0.114 -1.156,0.761 -0.955,1.439 0.004,0.013 0.011,0.022 0.016,0.035 -0.328,0.326 -0.793,0.669 -1.273,0.926 -0.361,-0.18 -0.812,-0.255 -1.258,-0.174 -0.858,0.156 -1.928,0.596 -2.377,0.979 -0.19,0.163 -0.308,0.406 -0.375,0.67 l -4.956,1.239 c -0.24,-0.146 -0.479,-0.335 -0.663,-0.539 -0.376,-0.42 -1.058,-0.528 -1.515,-0.241 -0.457,0.288 -1.119,0.786 -1.473,1.108 -0.18,0.164 -0.308,0.411 -0.369,0.677 l -2.168,0.542 c -0.299,-0.049 -0.625,-0.128 -0.891,-0.229 -0.471,-0.18 -0.925,-0.523 -1.007,-0.767 -0.083,-0.243 -0.411,0.126 -0.729,0.821 -0.104,0.229 -0.251,0.477 -0.413,0.718 -0.076,-0.305 -0.205,-0.466 -0.336,-0.376 -0.185,0.125 -0.453,0.404 -0.595,0.621 -0.143,0.215 -0.335,0.081 -0.43,-0.298 -0.095,-0.381 -0.411,-0.181 -0.704,0.442 -0.291,0.624 -0.563,0.752 -0.603,0.285 -0.04,-0.467 -0.429,-0.611 -0.864,-0.32 -0.436,0.291 -1.261,0.685 -1.834,0.877 -0.572,0.191 -1.064,0.828 -1.094,1.418 -0.006,0.132 0.016,0.273 0.05,0.414 l -0.613,0.263 -0.744,0.347 c -0.017,0.007 -0.032,0.016 -0.049,0.023 l -1.936,0.903 c -0.142,0.056 -0.28,0.118 -0.407,0.19 l -7.883,3.679 c -0.21,-0.424 -0.695,-0.925 -1.154,-1.161 -0.5,-0.259 -1.131,-0.367 -1.401,-0.244 -0.271,0.124 -0.538,0.381 -0.593,0.572 -0.057,0.19 -0.461,0.461 -0.9,0.602 -0.44,0.14 -1.063,0.622 -1.386,1.07 -0.173,0.241 -0.259,0.578 -0.265,0.916 -0.375,0.455 -0.867,0.881 -1.201,1.014 -0.13,0.051 -0.277,0.074 -0.428,0.084 0.016,-0.098 0.025,-0.186 0.021,-0.256 -0.024,-0.392 -0.69,-0.769 -1.479,-0.842 -0.79,-0.072 -1.786,-0.055 -2.214,0.039 -0.429,0.094 -1.184,0.213 -1.68,0.264 -0.495,0.053 -0.958,0.039 -1.027,-0.027 -0.069,-0.067 -0.316,0.252 -0.546,0.711 -0.232,0.459 -0.335,1.233 -0.232,1.722 0.023,0.112 0.071,0.247 0.131,0.39 -0.049,0.024 -0.097,0.045 -0.144,0.07 -0.508,0.279 -1.042,0.918 -1.187,1.42 -0.113,0.392 -0.207,1.045 -0.243,1.623 -0.063,0.071 -0.11,0.146 -0.168,0.22 l -14.104,4.03 h -7.594 l -22.78,3.254 -15.186,-2.17 -13.018,5.424 -10.129,-2.642 c -0.049,-0.128 -0.094,-0.254 -0.105,-0.363 -0.05,-0.472 0.015,-0.824 0.067,-0.939 0.104,-0.055 0.188,-0.145 0.242,-0.258 0.232,-0.494 -0.121,-1.479 -0.235,-1.77 -0.342,-0.873 -1.077,-1.778 -1.671,-2.063 -0.501,-0.238 -1.373,-0.698 -1.944,-1.025 -0.542,-0.309 -1.306,-0.664 -1.646,-0.712 -0.124,-0.036 -0.566,-0.376 -0.97,-0.905 -0.554,-0.724 -1.688,-0.605 -2.367,0.263 l -0.167,0.215 c -0.226,0.288 -0.39,0.352 -0.426,0.356 -0.016,-0.01 -0.062,-0.073 -0.091,-0.228 -0.032,-0.174 -0.082,-0.393 -0.157,-0.591 0.143,-0.198 0.199,-0.4 0.163,-0.588 -0.033,-0.169 -0.14,-0.306 -0.296,-0.382 -0.073,-0.107 -0.209,-0.483 -0.253,-1.01 -0.063,-0.754 -0.526,-0.814 -0.667,-0.814 -0.336,0 -0.671,0.273 -0.995,0.81 l -0.092,0.152 c -0.124,0.203 -0.229,0.331 -0.302,0.407 -0.113,-0.446 -0.354,-0.543 -0.541,-0.543 -0.434,0 -0.615,0.507 -0.736,1.003 -0.119,0.493 -0.258,0.849 -0.346,1.025 -0.063,-0.018 -0.127,-0.042 -0.172,-0.065 -0.268,-0.144 -0.65,-0.076 -0.901,0.143 -10e-4,-0.002 0.007,0.004 -0.017,-0.002 -0.234,0 -0.743,-0.103 -1.35,-0.332 l -0.315,-0.117 c -0.146,-0.056 -1.436,-0.537 -1.818,-0.537 l -0.376,0.099 -0.064,0.22 c -0.03,0.105 -0.098,0.336 0.385,0.898 -0.518,-0.09 -1.004,-0.268 -1.129,-0.361 -0.125,-0.094 -0.291,-0.379 -0.315,-0.593 -0.034,-0.306 -0.136,-1.268 -0.229,-2.139 l -0.029,-0.281 c -0.162,-1.532 -0.162,-1.532 -0.539,-1.532 h -0.172 l -0.144,0.165 c -0.142,-0.048 -0.375,-0.151 -0.696,-0.358 -0.795,-0.514 -1.961,-0.627 -2.576,-0.229 -0.439,0.285 -0.699,0.824 -0.723,1.402 -0.343,-0.191 -0.736,-0.326 -1.121,-0.372 -0.957,-0.117 -1.758,0.526 -1.809,1.392 -0.021,0.39 -0.092,0.685 -0.151,0.84 -0.152,-0.049 -0.406,-0.164 -0.667,-0.338 -0.353,-0.238 -0.797,-0.693 -0.949,-0.975 -0.185,-0.34 -0.617,-1.115 -0.961,-1.725 -0.435,-0.768 -1.486,-1.108 -2.293,-0.734 -0.646,0.303 -1.655,0.831 -2.248,1.18 -0.445,0.262 -1.224,0.32 -1.578,0.129 -0.361,-0.193 -0.6,-0.385 -0.682,-0.473 -0.061,-0.421 -0.42,-1.355 -0.601,-1.813 -0.399,-1.011 -0.749,-1.211 -0.941,-1.25 0.02,-0.459 0.005,-0.6 -0.119,-0.729 l -0.121,-0.125 h -0.171 c -0.366,0 -0.42,0.348 -0.463,0.629 -0.017,0.111 -0.039,0.206 -0.061,0.283 -0.112,-0.077 -0.253,-0.178 -0.398,-0.291 -0.119,-0.094 -0.256,-0.142 -0.396,-0.142 -0.498,0 -0.888,0.574 -1.048,1.572 -0.089,0.544 -0.396,0.799 -0.747,0.564 -0.699,-0.469 -1.596,-0.767 -2.077,-0.665 -0.243,0.052 -0.61,-0.058 -0.722,-0.168 -0.164,-0.161 -0.332,-0.195 -0.445,-0.195 -0.406,0 -0.701,0.393 -0.787,1.049 -0.045,0.334 -0.391,0.561 -0.775,0.486 -0.541,-0.103 -0.967,0.033 -1.211,0.342 -0.17,0.215 -0.225,0.493 -0.156,0.783 0.023,0.105 0.008,0.202 -0.051,0.281 -0.068,0.096 -0.186,0.156 -0.329,0.168 -0.204,0.018 -0.413,0.104 -0.617,0.217 -1.424,-0.541 -2.29,-0.887 -2.29,-0.887 l -18.44,6.508 -16.271,3.255 c 0,0 0.088,2.465 0.241,6.971 -0.147,-0.064 -0.301,-0.133 -0.467,-0.209 -0.256,-0.116 -0.509,-0.175 -0.752,-0.175 -0.734,0 -1.263,0.543 -1.286,1.317 -0.028,0.923 0.572,2.118 1.364,2.721 0.203,0.153 0.414,0.344 0.611,0.548 -0.553,-0.079 -1.127,0.15 -1.541,0.625 l -0.115,0.134 c -0.473,0.546 -1.04,0.685 -1.217,0.534 -0.545,-0.467 -1.469,-0.398 -1.973,0.143 -0.151,0.163 -0.311,0.242 -0.416,0.227 -0.147,-0.24 -0.33,-0.289 -0.457,-0.289 l -0.223,0.026 -0.117,0.12 c -0.078,0.079 -0.285,0.291 -0.263,1.377 l 0.004,0.191 c 0.015,0.742 -0.45,1.67 -1.017,2.027 -0.603,0.381 -0.654,0.825 -0.631,1.057 0.025,0.246 0.177,0.703 0.929,0.989 0.29,0.11 0.512,0.323 0.627,0.599 0.112,0.269 0.106,0.566 -0.015,0.838 -0.209,0.469 -0.232,0.815 -0.075,1.057 0.226,0.349 0.709,0.355 1.335,-0.102 l 0.247,-0.181 c 0.494,-0.362 1.112,-0.214 1.37,0.321 0.389,0.81 0.512,1.557 0.465,1.713 -0.087,0.271 -0.484,1.107 -0.936,1.922 l -0.1,0.182 c -0.266,0.479 -0.309,1.016 -0.122,1.477 0.185,0.455 0.566,0.79 1.071,0.944 1.06,0.32 2.008,-0.228 2.027,-1.142 0.002,-0.065 0.009,-0.116 0.016,-0.151 0.052,0.029 0.133,0.089 0.24,0.206 0.543,0.598 0.904,1.058 0.947,1.132 0.049,0.121 0.17,0.385 1.145,0.428 2.551,79.995 8.907,306.527 -0.919,306.527 11.382,0 1035.938,0 1035.938,0 l 6.508,-303.731 z M 368.358,430.013 c 0.602,0.16 0.73,0.439 0.284,0.622 -0.092,0.037 -0.155,0.086 -0.211,0.137 -0.076,-0.113 -0.166,-0.24 -0.265,-0.375 -0.017,-0.143 -0.03,-0.285 -0.029,-0.421 0,-0.02 0.008,-0.043 0.009,-0.063 0.065,0.045 0.136,0.079 0.212,0.1 z"
   clip-path="url(#SVGID_00000149365474198310391570000007872057993487680941_)"
   id="path41"
   transform="matrix(2.5692056,0,0,2.5593776,-2.4570025,-263.99201)" />
</g></svg>
